<?xml version="1.0" encoding="UTF-8" standalone="no"?>
<!-- Created with Inkscape (http://www.inkscape.org/) -->

<svg
   xmlns:dc="http://purl.org/dc/elements/1.1/"
   xmlns:cc="http://creativecommons.org/ns#"
   xmlns:rdf="http://www.w3.org/1999/02/22-rdf-syntax-ns#"
   xmlns:svg="http://www.w3.org/2000/svg"
   xmlns="http://www.w3.org/2000/svg"
   xmlns:sodipodi="http://sodipodi.sourceforge.net/DTD/sodipodi-0.dtd"
   xmlns:inkscape="http://www.inkscape.org/namespaces/inkscape"
   width="800"
   height="320"
   id="svg2992"
   version="1.1"
   inkscape:version="0.48.3.1 r9886"
   sodipodi:docname="eratosthenes.sieve.svg">
  <defs
     id="defs2994" />
  <sodipodi:namedview
     id="base"
     pagecolor="#ffffff"
     bordercolor="#666666"
     borderopacity="1.0"
     inkscape:pageopacity="0.0"
     inkscape:pageshadow="2"
     inkscape:zoom="0.75"
     inkscape:cx="125.33333"
     inkscape:cy="338.82392"
     inkscape:document-units="px"
     inkscape:current-layer="layer1"
     showgrid="false"
     inkscape:window-width="1535"
     inkscape:window-height="876"
     inkscape:window-x="65"
     inkscape:window-y="24"
     inkscape:window-maximized="1" />
  <metadata
     id="metadata2997">
    <rdf:RDF>
      <cc:Work
         rdf:about="">
        <dc:format>image/svg+xml</dc:format>
        <dc:type
           rdf:resource="http://purl.org/dc/dcmitype/StillImage" />
        <dc:title />
      </cc:Work>
    </rdf:RDF>
  </metadata>
  <g
     id="layer1"
     inkscape:label="Layer 1"
     inkscape:groupmode="layer">
    <text
       xml:space="preserve"
       style="font-size:40px;font-style:normal;font-weight:normal;line-height:125%;letter-spacing:0px;word-spacing:0px;fill:#000000;fill-opacity:1;stroke:none;font-family:Sans"
       x="33.333332"
       y="62"
       id="text3004"
       sodipodi:linespacing="125%"><tspan
         sodipodi:role="line"
         id="tspan3006"
         x="33.333332"
         y="62">2  2 3 4 5 6 7 8 9 10 11 12 13 14 15 </tspan></text>
    <text
       sodipodi:linespacing="125%"
       id="text3041"
       y="62"
       x="33.333332"
       style="font-size:40px;font-style:normal;font-weight:normal;line-height:125%;letter-spacing:0px;word-spacing:0px;fill:#000000;fill-opacity:1;stroke:none;font-family:Sans"
       xml:space="preserve"><tspan
         y="62"
         x="33.333332"
         id="tspan3043"
         sodipodi:role="line">2  2 3 4 5 6 7 8 9 10 11 12 13 14 15 </tspan></text>
    <flowRoot
       xml:space="preserve"
       id="flowRoot3053"
       style="font-size:40px;font-style:normal;font-weight:normal;text-align:start;line-height:125%;letter-spacing:0px;word-spacing:0px;text-anchor:start;fill:#000000;fill-opacity:1;stroke:none;font-family:Sans"><flowRegion
         id="flowRegion3055"><rect
           id="rect3057"
           width="741.33331"
           height="64"
           x="21.333334"
           y="16" /></flowRegion><flowPara
         id="flowPara3059" /></flowRoot>    <text
       xml:space="preserve"
       style="font-size:40px;font-style:normal;font-weight:normal;text-align:start;line-height:125%;letter-spacing:0px;word-spacing:0px;text-anchor:start;fill:#000000;fill-opacity:1;stroke:none;font-family:Sans"
       x="34.666668"
       y="118.66667"
       id="text3061"
       sodipodi:linespacing="125%"><tspan
         sodipodi:role="line"
         id="tspan3063"
         x="34.666668"
         y="118.66667">3  2 3 4 5 6 7 8 9 10 11 12 13 14 15</tspan></text>
    <text
       xml:space="preserve"
       style="font-size:40px;font-style:normal;font-weight:normal;text-align:start;line-height:125%;letter-spacing:0px;word-spacing:0px;text-anchor:start;fill:#000000;fill-opacity:1;stroke:none;font-family:Sans"
       x="38.666668"
       y="181.33333"
       id="text3065"
       sodipodi:linespacing="125%"><tspan
         sodipodi:role="line"
         id="tspan3067"
         x="38.666668"
         y="181.33333" /></text>
    <text
       xml:space="preserve"
       style="font-size:40px;font-style:normal;font-weight:normal;text-align:start;line-height:125%;letter-spacing:0px;word-spacing:0px;text-anchor:start;fill:#000000;fill-opacity:1;stroke:none;font-family:Sans"
       x="38.666668"
       y="178.66667"
       id="text3069"
       sodipodi:linespacing="125%"><tspan
         sodipodi:role="line"
         id="tspan3071"
         x="38.666668"
         y="178.66667" /></text>
    <text
       xml:space="preserve"
       style="font-size:40px;font-style:normal;font-weight:normal;text-align:start;line-height:125%;letter-spacing:0px;word-spacing:0px;text-anchor:start;fill:#000000;fill-opacity:1;stroke:none;font-family:Sans"
       x="42.666668"
       y="173.33333"
       id="text3073"
       sodipodi:linespacing="125%"><tspan
         sodipodi:role="line"
         id="tspan3075"
         x="42.666668"
         y="173.33333" /></text>
    <text
       xml:space="preserve"
       style="font-size:40px;font-style:normal;font-weight:normal;text-align:start;line-height:125%;letter-spacing:0px;word-spacing:0px;text-anchor:start;fill:#000000;fill-opacity:1;stroke:none;font-family:Sans"
       x="37.333332"
       y="166.66667"
       id="text3077"
       sodipodi:linespacing="125%"><tspan
         sodipodi:role="line"
         id="tspan3079"
         x="37.333332"
         y="166.66667" /></text>
    <text
       xml:space="preserve"
       style="font-size:40px;font-style:normal;font-weight:normal;text-align:start;line-height:125%;letter-spacing:0px;word-spacing:0px;text-anchor:start;fill:#000000;fill-opacity:1;stroke:none;font-family:Sans"
       x="40"
       y="182.66667"
       id="text3081"
       sodipodi:linespacing="125%"><tspan
         sodipodi:role="line"
         id="tspan3083"
         x="40"
         y="182.66667" /></text>
    <text
       xml:space="preserve"
       style="font-size:40px;font-style:normal;font-weight:normal;text-align:start;line-height:125%;letter-spacing:0px;word-spacing:0px;text-anchor:start;fill:#000000;fill-opacity:1;stroke:none;font-family:Sans"
       x="36"
       y="181.33333"
       id="text3085"
       sodipodi:linespacing="125%"><tspan
         sodipodi:role="line"
         id="tspan3087"
         x="36"
         y="181.33333">5  2 3 4 5 6 7 8 9 10 11 12 13 14 15</tspan></text>
    <text
       xml:space="preserve"
       style="font-size:40px;font-style:normal;font-weight:normal;text-align:start;line-height:125%;letter-spacing:0px;word-spacing:0px;text-anchor:start;fill:#000000;fill-opacity:1;stroke:none;font-family:Sans"
       x="38.666668"
       y="241.33333"
       id="text3089"
       sodipodi:linespacing="125%"><tspan
         sodipodi:role="line"
         id="tspan3091"
         x="38.666668"
         y="241.33333">7  2 3 4 5 6 7 8 9 10 11 12 13 14 15</tspan></text>
    <path
       style="fill:none;stroke:#000000;stroke-width:1.13731217px;stroke-linecap:butt;stroke-linejoin:miter;stroke-opacity:1"
       d="m 70.666667,21.333333 c 0,97.729527 0,195.459037 0,293.188567"
       id="path3101"
       inkscape:connector-curvature="0" />
    <path
       id="path3109"
       d="m 149.11688,64.238554 c 5.28908,-3.722875 10.47829,-7.576362 15.65227,-11.457288 2.92299,-2.103967 5.79222,-4.262681 8.52347,-6.607473 0.85096,-0.756655 1.60299,-1.566175 2.40257,-2.351556 0.59717,-0.838583 1.24121,-1.773369 2.05055,-2.462389 5.89859,-3.315786 11.79718,-6.631571 17.69576,-9.947357 0.28646,-0.229828 0.70483,0.06531 1.00425,-0.08717 0.28657,-0.145929 0.44485,-0.467159 0.69568,-0.668402 0,0 -15.50995,12.491809 -15.50995,12.491809 l 0,0 c -6.96882,2.374845 -11.83126,-5.479855 14.69438,-8.985899 -0.36409,0.153514 -1.05703,0.308798 -1.34991,0.550667 -0.40144,0.331522 -0.20427,0.651744 -0.59685,1.000306 -0.11232,0.09972 -0.28894,0.08221 -0.4334,0.123316 -0.15819,0.346572 -0.22366,0.751348 -0.47042,1.041602 -0.35381,0.416175 -1.61623,0.903707 -1.78338,1.885841 -2.94088,2.304897 -5.7039,4.820429 -8.86704,6.852187 -5.12869,3.725868 -10.04955,7.7459 -15.3612,11.21647 0,0 -18.34678,7.405337 -18.34678,7.405337 z"
       inkscape:connector-curvature="0" />
    <path
       id="path3111"
       d="m 243.65546,50.525802 c 0.65934,-0.397461 2.6472,-1.573056 1.97802,-1.192384 -4.66623,2.654473 -9.2842,5.393862 -13.96974,8.014099 -1.10784,0.619519 2.15125,-1.347857 3.23389,-2.010422 0.35173,-0.215257 6.51968,-3.932428 6.94611,-4.180156 6.54509,-3.802307 13.10939,-7.571458 19.66408,-11.357187 -4.61665,2.660791 -9.22956,5.328068 -13.84994,7.982375 -1.30132,0.747577 2.57814,-1.537284 3.88014,-2.283665 6.47003,-3.70898 13.08271,-8.451892 20.26322,-11.288042 8.85658,-3.068841 -16.66744,16.627951 -15.31246,9.364189 0.0154,-0.103171 0.0307,-0.206342 0.0461,-0.309513 0,0 17.77596,-9.021943 17.77596,-9.021943 l 0,0 c 0.0114,0.15009 0.0228,0.300179 0.0341,0.450268 -0.27009,7.32699 -11.78467,8.67331 -18.11529,11.827287 -5.92402,2.784657 -13.27671,7.531467 13.65209,-8.079924 0.59179,-0.343074 -1.18108,0.690415 -1.77215,1.034708 -0.76472,0.445439 -1.52887,0.891876 -2.29523,1.334487 -6.45591,3.728604 -12.91439,7.452768 -19.37158,11.179152 4.47244,-2.594647 8.93098,-5.21339 13.41731,-7.78394 1.15667,-0.662742 -2.2827,1.377614 -3.42777,2.060195 -2.22612,1.326991 -4.39592,2.747205 -6.62642,4.066803 -6.44313,3.811845 -12.92038,7.56578 -19.39381,11.32593 -0.71883,0.417539 -1.45496,0.804553 -2.18244,1.206829 0,0 15.42575,-12.339146 15.42575,-12.339146 z"
       inkscape:connector-curvature="0" />
    <path
       id="path3113"
       d="m 312.87977,53.38604 c 6.66163,-4.347964 -1.65647,1.124793 -12.90077,7.261043 -1.0046,0.54823 1.89973,-1.277102 2.83499,-1.936693 3.52105,-2.483219 6.88084,-5.148808 10.22578,-7.861461 4.89719,-4.099781 9.92793,-8.028604 15.02141,-11.879749 0,0 18.29024,-7.261101 18.29024,-7.261101 l 0,0 c -5.2798,3.834681 -10.48573,7.765616 -15.48633,11.96142 -10.3433,8.592534 -21.08297,16.399072 -33.51201,21.987523 0,0 15.52669,-12.270982 15.52669,-12.270982 z"
       inkscape:connector-curvature="0" />
    <path
       id="path3115"
       d="m 403.87005,52.595537 c 5.70722,-2.12214 11.13735,-4.872555 16.4458,-7.839662 1.81265,-1.013163 7.20903,-4.125508 5.39134,-3.121425 -3.82653,2.113746 -7.61228,4.300492 -11.41841,6.450738 4.53845,-3.100975 9.55142,-5.615563 13.72881,-9.225135 0.23777,-0.259255 0.47554,-0.518511 0.71331,-0.777766 0,0 18.20346,-7.801182 18.20346,-7.801182 l 0,0 c -0.22682,0.334925 -0.45365,0.669851 -0.68047,1.004776 -3.6229,4.281936 -9.78961,6.621997 -14.21796,9.938424 -7.01362,4.105056 -14.01539,8.230408 -21.04085,12.31517 -7.30312,4.246207 -14.81027,8.565962 -22.97996,10.879342 0,0 15.85493,-11.82328 15.85493,-11.82328 z"
       inkscape:connector-curvature="0" />
    <path
       id="path3117"
       d="m 528.12287,57.088445 c 13.57876,-7.125562 26.86854,-14.804377 40.14112,-22.483118 -22.23162,13.258029 -7.21287,4.065728 -2.35791,0.569483 0,0 18.21527,-7.209767 18.21527,-7.209767 l 0,0 c -9.5726,6.982774 -20.09528,12.538406 -30.37042,18.386531 -13.62019,7.752307 -27.15489,15.681344 -41.03169,22.965085 0,0 15.40363,-12.228214 15.40363,-12.228214 z"
       inkscape:connector-curvature="0" />
    <path
       id="path3119"
       d="m 647.73177,61.481995 c 4.65976,-6.084612 10.77065,-10.891143 16.62994,-15.766641 3.09017,-2.781232 6.62076,-4.998769 9.78367,-7.685293 5.91711,-3.435212 11.80208,-6.926414 17.75134,-10.305636 0.59542,-0.338198 1.44999,-0.58292 2.10728,-0.950067 0.17816,-0.09952 0.70935,-0.40393 0.53254,-0.302019 -5.47881,3.157999 -10.95905,6.313525 -16.43857,9.470288 10.76465,-6.435278 37.60284,-21.495908 3.1104,-1.743277 0.14456,-0.131335 0.28912,-0.262669 0.43368,-0.394004 0,0 18.46734,-7.411438 18.46734,-7.411438 l 0,0 c -0.15976,0.112204 -0.31952,0.224409 -0.47929,0.336613 -55.3136,32.643689 8.27185,-5.214452 -3.02004,1.962808 -5.86146,3.412948 -11.7156,6.838498 -17.58437,10.238845 -0.62105,0.35983 -1.31721,0.562018 -1.96101,0.868348 -0.21826,0.10385 -0.83918,0.480096 -0.63065,0.357878 5.37641,-3.151087 10.75623,-6.296347 16.13435,-9.44452 -1.1802,0.762818 -2.13091,1.74441 -3.26703,2.573525 -2.36155,1.723406 -4.90774,3.207393 -7.05523,5.219968 -5.73064,4.68355 -11.75657,9.299028 -16.383,15.111111 0,0 -18.13135,7.863511 -18.13135,7.863511 z"
       inkscape:connector-curvature="0" />
    <path
       id="path3121"
       d="m 161.0702,118.96959 c 3.55282,-2.19133 6.97656,-4.57597 10.3207,-7.07162 6.14563,-5.20081 12.56315,-7.57557 20.17125,-12.285178 5.28156,-3.269425 -10.74234,6.240418 -16.14221,9.310518 -0.35697,0.20296 0.67276,-0.47105 1.00914,-0.70658 6.67276,-5.47308 14.37861,-8.667076 21.8124,-13.42038 5.23884,-3.349809 -10.77208,6.21521 -16.15812,9.32281 1.1344,-0.5478 1.77442,-1.44515 2.58323,-2.34375 5.79162,-3.426648 11.55181,-6.906992 17.37486,-10.279947 0.26371,-0.15275 1.16929,-0.276983 0.90584,-0.123799 -5.52942,3.215037 -11.10313,6.353386 -16.66855,9.505696 -0.26004,0.14729 0.4395,-0.40774 0.62951,-0.63841 0.32492,-0.406638 0.64024,-0.820777 0.9538,-1.236184 0,0 18.33379,-7.874084 18.33379,-7.874084 l 0,0 c -0.33068,0.422176 -0.66124,0.844471 -0.98662,1.270758 -0.20191,0.270564 -0.2607,0.675697 -0.54927,0.850922 -5.78323,3.511744 -11.64956,6.884788 -17.47645,10.323598 -0.22178,0.13089 -0.86063,0.56531 -0.63876,0.43458 5.52497,-3.25542 11.03019,-6.544249 16.54529,-9.816372 -0.33964,0.278554 -0.94164,0.631155 -1.17876,0.993093 -0.43112,0.658073 -0.56437,1.265834 -1.36481,1.681113 -40.79809,23.932366 -7.59922,4.444746 -1.69234,1.027958 0.32212,-0.186331 -0.61673,0.416675 -0.92229,0.62909 -1.0834,0.753149 -1.97459,1.696928 -3.12877,2.347168 -6.41575,5.54932 4.35477,-3.668669 -18.70006,11.23253 -5.29061,3.41951 10.89897,-6.32042 16.33605,-9.50189 1.29306,-0.75663 -4.08652,2.30316 -2.73888,1.99308 -3.26181,2.56617 -6.68192,4.94425 -10.18983,7.16018 0,0 -18.44014,7.2151 -18.44014,7.2151 z"
       inkscape:connector-curvature="0" />
    <path
       id="path3123"
       d="m 239.65546,109.19247 c 5.23749,-2.9125 10.61143,-5.56188 15.89762,-8.3819 1.53026,-0.86156 3.21432,-1.412727 4.78415,-2.187099 0.43047,-0.212343 1.6758,-0.936922 1.25964,-0.697754 -16.5168,9.492193 -20.52393,12.039213 -14.07597,7.985093 2.06433,-1.36748 4.1656,-2.67364 6.18348,-4.10997 0.13673,-0.0988 0.26001,-0.21957 0.41019,-0.29639 1.08247,-0.55371 0.5144,-0.97394 1.3881,-1.36193 0.2381,-0.209842 0.39814,-0.477185 0.55883,-0.745495 0,0 18.14786,-8.287628 18.14786,-8.287628 l 0,0 c -0.13303,0.376062 -0.27464,0.748759 -0.41955,1.12043 -0.38786,1.277405 -0.47431,0.264205 -0.86734,0.767094 -0.35299,0.451661 0.0594,1.300185 -0.73789,1.49387 -2.04774,1.497131 -4.12967,2.941705 -6.32026,4.224523 -7.91659,5.793386 -16.72881,10.158936 -25.5563,14.342696 -5.37622,2.79379 -10.76777,5.55535 -16.07831,8.4736 0,0 15.42575,-12.33914 15.42575,-12.33914 z"
       inkscape:connector-curvature="0" />
    <path
       id="path3125"
       d="m 307.96617,117.41785 c 4.82494,-4.09557 10.13369,-7.54501 15.4096,-11.01739 7.62173,-4.98073 15.0683,-10.748704 23.70862,-13.747842 0.12728,-0.03214 0.49541,-0.162213 0.38183,-0.09641 -5.52968,3.203571 -11.0738,6.382609 -16.64292,9.517122 -0.33255,0.18717 0.49405,-0.6048 0.82648,-0.79218 5.88643,-3.31812 11.79363,-6.599256 17.69044,-9.898881 -5.59058,3.134286 -11.18116,6.268573 -16.77175,9.402861 0.65423,0.0672 0.45284,-0.43823 0.82542,-0.65881 5.79903,-3.433327 11.64685,-6.785421 17.53788,-10.058376 0.1732,-0.09623 0.39613,-0.01034 0.5942,-0.01551 0.10507,-0.139204 0.46707,-0.503362 0.31521,-0.417611 -5.47834,3.093308 -21.78679,12.594617 -16.327,9.468702 5.94833,-3.405619 11.84846,-6.894737 17.77501,-10.338118 0,0 -15.61346,12.343673 -15.61346,12.343673 l 0,0 c 5.50508,-3.250042 10.98779,-6.538264 16.51522,-9.75014 0.21744,-0.126347 -0.2488,0.465615 -0.46497,0.59412 -5.77291,3.431819 -11.55642,6.847031 -17.39158,10.1719 -0.1712,0.0975 -0.39114,0.0481 -0.5867,0.0721 -5.6203,3.76158 -4.27676,2.84997 16.20487,-9.355577 0.11362,-0.06771 -0.2816,-0.104627 -0.39509,-0.03671 -0.25964,0.15538 -0.0689,0.707111 -0.40651,0.811631 -5.8215,3.373576 -11.72873,6.596996 -17.5931,9.895486 44.15707,-25.505976 -1.97854,1.1401 -2.10189,1.46861 -5.8322,2.92422 -12.82229,7.46529 14.84644,-8.65759 0.41741,-0.243224 -0.86669,0.429512 -1.28041,0.678944 -1.1881,0.716299 -2.26828,1.602967 -3.46937,2.298985 -5.19541,3.418561 -10.54641,6.644751 -15.28596,10.700741 0,0 -18.30051,7.41624 -18.30051,7.41624 z"
       inkscape:connector-curvature="0" />
    <path
       id="path3127"
       d="m 407.62715,113.64148 c 7.73492,-2.60731 15.37163,-5.45139 22.79321,-8.85383 3.31767,-1.52024 3.16915,-1.36064 6.1337,-3.03564 0.69391,-0.39207 2.74556,-1.62015 2.05349,-1.22483 -26.78094,15.29777 -19.01539,11.35269 -13.62598,7.68887 5.94445,-3.33644 11.87833,-6.69178 17.83334,-10.009325 0.49818,-0.277538 2.04428,-1.008476 1.55026,-0.723599 -5.4533,3.144644 -10.9251,6.257134 -16.39455,9.373604 -0.32111,0.18297 0.61843,-0.40696 0.90605,-0.63904 1.29707,-1.49581 2.60719,-2.94957 3.97987,-4.37436 1.02247,-1.27302 1.95492,-2.616282 2.89393,-3.951518 0,0 18.28461,-7.909418 18.28461,-7.909418 l 0,0 c -1.01561,1.348113 -2.04024,2.692927 -2.96629,4.104707 -0.57554,0.820153 -0.76672,1.208756 -1.53555,1.856258 -0.2669,0.224774 -0.63034,0.329013 -0.86915,0.583418 -0.52845,0.56294 -0.7858,1.48535 -1.43043,1.987281 -0.10666,0.152364 -0.66596,0.972274 -0.78487,1.043451 -5.8379,3.494441 -11.74561,6.871131 -17.64237,10.265291 -0.49917,0.28732 -2.09228,0.95486 -1.59524,0.66386 5.40815,-3.16629 10.8603,-6.25682 16.29045,-9.38524 -2.32829,1.14549 0.87417,-0.48298 -1.86961,1.12934 -8.63747,5.07563 -17.0763,10.55843 -26.29921,14.51812 -7.66183,3.33181 -15.49485,6.25237 -23.39377,8.97168 0,0 15.68811,-12.07908 15.68811,-12.07908 z"
       inkscape:connector-curvature="0" />
    <path
       id="path3129"
       d="m 534.912,107.57862 c 12.81417,-5.78311 25.07373,-12.680304 37.26892,-19.647583 -24.66755,13.623813 -8.98759,5.817496 -4.14258,1.267721 0.16241,-0.2702 0.40361,-0.396748 0.63087,-0.552558 0,0 17.91741,-8.796133 17.91741,-8.796133 l 0,0 c 0.0646,0.578403 0.0116,1.043302 -0.28432,1.570638 -4.58694,6.986194 -30.42138,15.644577 -28.84795,18.416654 -12.44596,7.001281 -25.01644,13.777441 -37.87193,20.003481 0,0 15.32958,-12.26222 15.32958,-12.26222 z"
       inkscape:connector-curvature="0" />
    <path
       id="path3131"
       d="m 644.14745,119.92704 c 4.14326,-3.3592 8.26436,-6.74413 12.32181,-10.2067 1.13709,-1.21968 2.71304,-2.06772 3.7147,-3.41252 0.41278,-0.49404 -0.0818,-0.2251 0.12626,-1.06396 0.0458,-0.18464 2.72193,-1.98988 3.19544,-2.33358 6.96215,-5.228793 14.80882,-9.068287 22.38198,-13.356175 0.53361,-0.302128 1.1282,-0.484816 1.66847,-0.774865 0.44633,-0.239614 1.72519,-1.062166 1.28532,-0.810897 -5.31353,3.03526 -10.60497,6.109024 -15.90746,9.163537 10.98515,-6.928554 36.21202,-20.871341 2.41423,-1.60921 -0.73112,0.416682 1.37773,-0.96698 2.05463,-1.466941 0,0 18.40655,-7.224378 18.40655,-7.224378 l 0,0 c -0.69359,0.434467 -1.28312,1.024261 -1.98548,1.444416 -18.24483,10.914232 -28.26155,16.330773 -1.2168,0.708771 0.45061,-0.260285 -1.97219,1.51218 -1.22295,0.970327 -5.9633,3.476434 -11.91409,6.974427 -17.88992,10.429305 -12.59886,7.28392 20.34561,-12.740646 10.09991,-6.047325 -0.62696,0.40958 -1.22529,0.861391 -1.83793,1.292087 -0.002,0.0018 -2.71263,2.236954 -2.93045,2.158381 -0.19975,-0.07205 -0.24087,-0.390596 -0.44197,-0.458793 -0.2206,-0.07481 0.26706,0.86677 -0.0774,0.694496 -0.56445,1.982204 -2.0584,3.041544 -3.61797,4.315644 -4.03353,3.4617 -8.17544,6.79646 -12.28405,10.16811 0,0 -18.25694,7.42027 -18.25694,7.42027 z"
       inkscape:connector-curvature="0" />
    <path
       id="path3135"
       d="m 152.98194,178.99213 c 3.20393,-3.18715 6.4495,-6.32862 9.75764,-9.40751 1.41551,-1.33474 2.97559,-2.49651 4.47195,-3.73459 5.81586,-3.4226 11.95595,-6.34602 17.4476,-10.26779 5.18336,-3.70163 -10.99135,6.43994 -16.51895,9.6046 -0.37219,0.21309 0.64335,-0.57627 1.01412,-0.79183 16.93952,-9.84847 11.44027,-7.14836 17.84524,-10.28063 0.91686,-0.0526 1.82693,-0.0143 2.74441,-0.007 1.07348,0.034 2.1479,0.0409 3.2219,0.042 0.1704,-8.5e-4 0.35408,0.0634 0.5112,-0.003 0.33411,-0.14024 0.51055,-0.53745 0.83822,-0.69214 0.51153,-0.24151 1.15442,-0.35889 1.69644,-0.53176 0.65121,-0.0421 1.29894,-0.12067 1.94942,-0.17179 0,0 -15.98612,11.92023 -15.98612,11.92023 l 0,0 c -0.57555,0.10163 -1.15787,0.20215 -1.68315,0.47361 -1.15914,0.41388 -2.15182,0.95208 -3.4283,0.69382 -1.07025,-0.007 -2.14242,-0.0213 -3.21147,0.0345 -0.77693,0.0555 -1.59694,0.17384 -2.1745,0.74219 -5.77099,3.47063 -2.22953,1.33822 16.2368,-9.38561 0.3555,-0.20645 -0.74995,0.34075 -1.10415,0.54942 -5.81623,3.42663 -11.75879,6.65099 -17.42236,10.32444 -5.348,3.46876 10.9832,-6.47323 16.47481,-9.70984 -1.53524,1.3098 -3.14655,2.51251 -4.72116,3.77476 -3.39383,2.89205 -6.56586,6.03625 -9.6619,9.24475 0,0 -18.29769,7.57915 -18.29769,7.57915 z"
       inkscape:connector-curvature="0" />
    <path
       id="path3137"
       d="m 247.89582,168.13327 c 6.10541,-2.36199 11.76919,-5.66583 17.57793,-8.64543 -2.71154,1.54505 7.47587,-3.92421 4.64498,-2.28502 -26.90251,15.57761 -20.66402,12.36677 -15.1367,8.52789 1.08423,-0.6319 1.99494,-1.48227 2.90443,-2.33745 0.76432,-0.34772 1.11587,-1.4983 1.79934,-1.90134 5.78967,-3.41416 11.44509,-7.09402 17.4843,-10.04438 5.76114,-2.81451 -11.09874,6.42392 -16.64811,9.63588 0.46158,-0.29077 0.94427,-1.0323 1.51136,-1.15585 0.87239,-0.19006 -0.0399,0.29956 0.61008,-0.0981 0.14332,-0.13623 0.23597,-0.3053 0.3281,-0.47673 0,0 18.00617,-8.62897 18.00617,-8.62897 l 0,0 c -0.0309,0.31583 -0.0737,0.62989 -0.14427,0.93982 -0.31912,1.58047 -0.41198,1.23212 -1.83975,1.96986 -5.79478,3.41534 -12.18828,5.9746 -17.38433,10.24602 -4.94544,4.06541 11.11261,-6.36085 16.62284,-9.62004 0.1552,-0.0918 -0.37222,0.0171 -0.5312,0.10217 -0.57986,0.31035 -0.89542,1.11687 -1.46009,1.453 -0.88657,0.90218 -1.74656,1.86605 -2.74414,2.63808 -7.36711,5.04723 -15.22052,9.35996 -23.2506,13.24723 -5.87738,3.04932 -11.71358,6.24114 -17.93783,8.54319 0,0 15.58749,-12.10986 15.58749,-12.10986 z"
       inkscape:connector-curvature="0" />
    <path
       id="path3139"
       d="m 303.6927,186.91144 c 3.34322,-4.24101 7.61936,-7.48717 12.06572,-10.47519 9.15729,-5.99918 18.70236,-11.38297 28.52691,-16.1863 1.53727,-0.89639 3.36838,-1.17532 4.97526,-1.85534 0.2613,-0.11058 0.95493,-0.61234 0.7081,-0.47241 -5.49043,3.11272 -10.9605,6.2612 -16.44075,9.3918 0.24459,-0.39087 1.51831,-0.54151 1.54048,-0.57074 0.0589,-0.16299 0.0711,-0.33393 0.0836,-0.50479 0,0 17.77718,-9.09808 17.77718,-9.09808 l 0,0 c 0.021,0.2678 0.037,0.53587 0.0455,0.80441 0.0844,1.31287 0.21206,1.36555 -0.89139,2.2365 -5.88367,3.36604 -11.73549,6.78837 -17.65101,10.09812 -1.57704,0.88236 -4.02296,1.13137 -5.54346,2.24408 -1.13131,0.53124 -2.18251,1.01137 -3.2931,1.58858 -0.60396,0.3139 -2.38205,1.31802 -1.79452,0.97435 27.74848,-16.23165 16.04841,-9.4736 10.1063,-5.7306 -4.37612,2.76988 -8.77099,5.69891 -12.00529,9.81885 0,0 -18.20949,7.73676 -18.20949,7.73676 z"
       inkscape:connector-curvature="0" />
    <path
       id="path3141"
       d="m 401.91393,171.63926 c 7.50041,-3.49258 14.80977,-7.37035 22.04059,-11.38723 -2.07136,1.12482 5.41929,-2.85206 4.0953,-2.08239 -5.16631,3.00329 -10.36893,5.94372 -15.56305,8.89867 -0.36378,0.20696 0.70951,-0.44446 1.07158,-0.65442 18.33285,-10.63082 11.72289,-7.66669 19.64297,-11.13565 3.37417,-1.32394 6.43003,-3.37437 9.92537,-4.36953 1.38306,-0.53052 2.75479,-0.89863 4.05178,-1.62476 0.33378,-0.18687 1.31799,-0.77724 0.98605,-0.58711 -18.83816,10.79032 -21.55877,12.32154 -15.65752,8.99592 0.47053,-0.13404 0.74913,-0.25761 0.88689,-0.72436 0,0 18.35333,-7.83725 18.35333,-7.83725 l 0,0 c -0.52148,0.20735 -0.36829,0.92957 -0.70858,1.35011 -7.32877,5.24815 -15.00442,9.76282 -23.48432,12.55876 -3.308,1.38006 -6.48612,3.05232 -9.75031,4.53113 -6.8085,3.67581 -2.62869,1.43871 14.20621,-8.28149 0.37505,-0.21655 -0.74074,0.44905 -1.11568,0.66579 -7.39711,4.27596 -14.52963,8.69799 -22.10674,12.51806 -7.33084,3.927 -14.69025,7.80391 -22.23602,11.30669 0,0 15.36215,-12.14094 15.36215,-12.14094 z"
       inkscape:connector-curvature="0" />
    <path
       id="path3143"
       d="m 521.29951,180.08451 c 11.86174,-8.81072 25.11635,-15.58887 38.13565,-22.53801 2.97516,-1.52346 5.89099,-3.15915 8.78071,-4.83788 0.58573,-0.34027 2.33789,-1.36964 1.75061,-1.03205 -14.82449,8.52171 -20.85981,12.14285 -14.85272,8.5446 0.81697,-0.20433 1.43853,-1.25704 2.25676,-1.3026 0.21727,-0.68969 0.45085,-1.29322 0.97064,-1.85343 0.28216,0.0801 0.473,0.10645 0.70386,-0.0651 0,0 17.99657,-8.62268 17.99657,-8.62268 l 0,0 c 0.007,0.50082 0.009,1.00256 -0.0728,1.49891 -0.21376,0.054 -1.33462,0.24908 -1.40153,0.32642 -0.10358,0.11973 -0.0286,0.31534 -0.0429,0.473 -0.0324,1.08257 -1.03813,1.82658 -1.90722,2.40254 -9.5454,5.78819 -19.26602,11.31852 -29.1512,16.51058 -5.62147,3.01722 -20.88914,11.93459 4.03751,-2.65533 2.2987,-1.34545 -4.61663,2.67036 -6.80188,4.19316 -0.7128,0.49673 -1.40106,1.02777 -2.1016,1.54166 0,0 -18.3005,7.41623 -18.3005,7.41623 z"
       inkscape:connector-curvature="0" />
    <path
       id="path3145"
       d="m 642.40354,182.96959 c 4.44792,-3.00175 8.92365,-5.9621 13.39335,-8.93169 9.82956,-7.2273 49.66648,-29.44227 12.60962,-8.09402 60.9189,-34.88158 -10.69685,6.08241 3.45132,-2.05556 5.9839,-3.44192 11.98304,-6.85729 17.98154,-10.27371 0.48282,-0.27499 1.85247,-0.9851 2.29274,-1.21541 2.79738,-1.55362 5.63036,-3.03207 8.50825,-4.43499 -27.64817,17.47256 -19.98265,11.9425 -14.25377,7.8872 5.64155,-4.04017 1.19248,-0.8628 18.01531,-9.79192 0.13203,-0.0701 0.57688,-0.10789 0.44719,-0.0336 -15.70766,9.00334 -22.88077,11.80172 -16.61732,9.34686 0,0 18.24971,-8.03919 18.24971,-8.03919 l 0,0 c -0.0371,0.15725 0.0271,0.38854 -0.11136,0.47177 -50.67178,30.45199 2.84507,-2.85152 -1.40505,0.76557 -6.48731,4.17543 -11.94144,9.20471 -19.81394,11.76258 -2.84748,1.40224 -5.6194,2.94233 -8.41974,4.43507 -11.33325,5.97301 20.99553,-12.34354 12.53515,-7.40796 -6.0033,3.50218 -12.06221,6.91057 -18.01272,10.50172 -5.12557,3.09328 10.35836,-6.0053 15.53754,-9.00795 -6.10121,3.53621 -12.2023,7.07264 -18.30365,10.60861 -5.0275,2.91364 10.05264,-5.83134 15.0821,-8.74159 0.70061,-0.4054 -1.40796,0.79984 -2.0955,1.22702 -2.57292,1.5986 -5.09271,3.29418 -7.58633,5.01245 -4.36313,2.90953 -8.74736,5.7913 -13.04431,8.79359 0,0 -18.44013,7.2151 -18.44013,7.2151 z"
       inkscape:connector-curvature="0" />
    <path
       id="path3147"
       d="m 177.05741,229.42979 c 3.67646,-1.71102 7.33158,-3.47177 11.00793,-5.1875 0.30546,-0.14207 0.62372,-0.25934 0.91636,-0.42621 0.25836,-0.14733 0.48681,-0.34181 0.73022,-0.51272 -5.44846,3.14652 -21.82563,12.53037 -16.34537,9.43956 5.91234,-3.33451 11.80706,-6.70204 17.64172,-10.17068 5.38254,-3.19987 -21.85694,12.22207 -16.28523,9.36426 6.09533,-3.12638 11.90517,-6.78056 17.85776,-10.17084 -5.39585,3.09146 -10.78187,6.20016 -16.18757,9.27439 -0.54281,0.30869 1.04246,-0.68912 1.58294,-1.00187 5.87,-3.39661 11.59509,-7.05918 17.62113,-10.17055 5.48768,-2.83341 -21.05582,12.87694 -16.04069,9.27261 0.69223,-0.80331 1.43306,-1.49827 2.24548,-2.20425 5.51059,-4.51657 0.9052,-0.76904 18.03568,-10.16417 1.28269,-0.70348 -0.28516,0.54299 1.08603,-0.0642 0.15279,-0.0677 0.4416,-0.48615 0.2956,-0.40487 -5.54639,3.08773 -11.02403,6.29738 -16.53605,9.44607 0.91426,-0.61386 0.43675,-0.38106 1.09802,-0.14276 0.0507,0.0183 0.0392,-0.10037 0.0589,-0.15055 0.0414,-0.59386 -2.8e-4,-1.19169 -0.0342,-1.7854 -0.003,-0.0538 -0.007,-0.10764 -0.0102,-0.16146 0,0 17.76229,-9.13056 17.76229,-9.13056 l 0,0 c 5.3e-4,0.0556 0.001,0.11127 0.002,0.16691 0.009,0.63218 0.0169,1.26595 0.0851,1.89507 0.13119,0.98443 0.43156,1.34073 -0.45653,2.02069 -5.86512,3.39562 -11.67838,6.88243 -17.59535,10.18688 -0.30885,0.17248 -0.71926,0.0227 -1.05135,0.14459 -7.07898,2.59761 22.12708,-12.92118 15.77752,-9.20461 -0.34413,0.21394 -1.0339,0.48341 -1.28769,0.78141 -0.41703,0.48966 -0.38959,0.8454 -1.14073,1.02178 -3.95245,6.76129 6.85162,-11.51997 -17.74617,10.9749 -4.64677,4.2495 10.90684,-6.29633 16.35672,-9.45061 0.53927,-0.31212 -1.09028,0.60365 -1.62939,0.91604 -5.93108,3.43673 -11.8589,6.87908 -17.78835,10.31862 42.53029,-24.55801 -0.84769,0.49842 -1.56598,0.87482 -5.58595,2.92713 21.7459,-12.78237 16.365,-9.49345 -6.86003,4.19299 -12.458,8.01391 -19.29252,11.01074 -3.70023,1.68736 -7.33569,3.52059 -11.09558,5.07137 0,0 15.56299,-12.18348 15.56299,-12.18348 z"
       inkscape:connector-curvature="0" />
    <path
       id="path3149"
       d="m 238.74048,241.43858 c 4.73862,-3.12821 9.44184,-6.30932 14.16963,-9.45442 2.61001,-1.63489 5.15561,-3.22717 7.45395,-5.28385 1.82439,-1.54951 3.65047,-3.09631 5.42985,-4.69751 0.60034,-0.79366 1.72435,-1.04159 2.2972,-1.84111 0.16831,-0.35839 0.0976,-0.18516 0.21762,-0.51743 0,0 17.96526,-8.67095 17.96526,-8.67095 l 0,0 c -0.0617,0.49754 -0.0243,0.23429 -0.11585,0.78922 -0.2282,1.18422 -0.66943,2.36988 -1.96071,2.73913 -1.82779,1.61929 -3.65894,3.23443 -5.54517,4.78581 -1.17939,0.97048 -2.17226,2.20239 -3.38455,3.11837 -0.58605,0.44281 -1.93124,1.05197 -2.53533,1.41347 -0.53762,0.32172 -1.04737,0.68786 -1.57106,1.03179 -4.70952,3.09469 -9.45501,6.13665 -14.01664,9.44876 0,0 -18.4042,7.13872 -18.4042,7.13872 z"
       inkscape:connector-curvature="0" />
    <path
       id="path3151"
       d="m 306.40354,244.30293 c 4.68623,-3.0909 9.38011,-6.16273 14.13448,-9.14855 8.06443,-4.98408 16.37124,-9.55108 24.56947,-14.31138 5.1974,-3.01787 -10.41603,5.9991 -15.63771,8.97476 -0.36674,0.20899 0.7146,-0.44947 1.0719,-0.67421 48.78367,-27.8878 1.31499,-0.67139 1.94301,-1.05795 5.84641,-3.59858 11.88647,-6.87267 17.84075,-10.28981 0.25616,-0.14702 1.04503,-0.55034 0.78957,-0.40209 -16.84407,9.77484 -21.27435,13.30191 -15.72499,8.94298 1.30488,-0.70285 2.10994,-1.65166 3.01748,-2.81751 0.8079,-1.00912 1.35218,-2.06417 2.46911,-2.73351 0.0987,-0.0697 0.19736,-0.13942 0.29604,-0.20913 0,0 18.36231,-7.74714 18.36231,-7.74714 l 0,0 c -0.0803,0.13438 -0.1606,0.26876 -0.2409,0.40314 -0.2843,0.37598 -0.44643,0.68604 -0.91168,0.8857 -0.14998,0.0644 -0.34424,-0.0355 -0.48783,0.0421 -0.53821,0.29083 -0.72926,1.22567 -1.24751,1.5453 -0.0901,0.114 -1.01819,1.28493 -1.10782,1.41338 -0.26419,0.37866 -0.34552,0.87077 -0.63309,1.23199 -0.25813,0.32426 -0.81098,0.32111 -1.04366,0.67585 -6.296,4.18268 -0.72588,0.49847 -18.21549,10.80685 -0.24536,0.14462 -0.99223,0.55975 -0.74583,0.41692 5.3549,-3.10414 21.50186,-12.27084 16.07139,-9.30087 -2.96189,1.61989 -41.86427,24.19309 -1.97817,1.07187 -11.10041,6.39328 -36.21593,20.94574 -3.93081,2.30278 0.60943,-0.35192 -1.20435,0.72838 -1.80708,1.09166 -2.81635,1.69747 -1.58579,0.96751 -4.56421,2.68914 -4.65345,2.94046 -9.32761,5.84267 -13.8486,8.98263 0,0 -18.44013,7.21511 -18.44013,7.21511 z"
       inkscape:connector-curvature="0" />
    <path
       id="path3153"
       d="m 386.40354,240.30293 c 6.66951,-4.55687 13.66627,-8.60336 20.56568,-12.79585 7.45111,-4.48694 15.09969,-8.63688 22.57567,-13.08118 4.82259,-2.86692 -9.71954,5.60749 -14.61421,8.34955 -0.51597,0.28906 0.98703,-0.65198 1.47369,-0.98805 0.69252,-0.47824 1.16314,-0.84207 1.82116,-1.33791 6.44702,-4.84851 12.76299,-10.6578 20.71289,-10.3942 2.52428,-6.8585 -22.21215,11.33027 -16.42241,8.99776 10.3621,-4.17458 12.8893,-8.65313 20.95384,-10.95632 0.26629,-0.17764 0.53258,-0.35527 0.79887,-0.53291 0,0 -15.51795,12.34916 -15.51795,12.34916 l 0,0 c -0.32097,0.0978 -0.64195,0.19561 -0.96293,0.29341 -1.53478,0.48649 -0.52139,0.14994 -2.09872,0.71469 -0.32665,0.11695 -1.27991,0.52344 -0.98155,0.34635 5.41066,-3.21159 21.85467,-12.47944 16.33476,-9.45948 -18.4336,10.08507 -11.0094,11.8036 -18.18589,10.00208 -0.51749,0.0515 -0.97936,0.11807 -1.46519,0.3189 -0.16176,0.0669 -0.6257,0.31324 -0.47413,0.2257 16.0987,-9.29729 22.15997,-12.27547 15.77382,-9.11887 -1.25128,0.71838 -2.27426,1.71093 -3.51397,2.44842 -6.6081,3.93108 -37.40855,21.81068 -4.88394,2.93529 1.12535,-0.65309 -2.25338,1.30158 -3.38007,1.95237 -6.73084,4.09943 -13.63072,7.96335 -20.06929,12.51598 0,0 -18.44013,7.21511 -18.44013,7.21511 z"
       inkscape:connector-curvature="0" />
    <path
       id="path3155"
       d="m 526.45022,245.57189 c 11.03217,-8.2032 23.40892,-14.36805 35.44971,-20.94791 7.30385,-3.98711 24.75866,-13.87805 -7.19077,4.37987 17.27557,22.68395 11.6345,-8.21081 18.26878,-10.53472 0.42283,-0.14811 0.90371,-0.0974 1.31617,-0.27231 0.20401,-0.0865 0.36857,-0.24613 0.55285,-0.3692 0.25428,-0.0886 0.50856,-0.17713 0.76283,-0.26569 -2.23263,1.36269 5.28923,-2.84106 2.91634,-1.45949 -18.57565,10.81531 -21.46231,12.75767 -15.61256,8.86834 11.37695,-6.42936 35.70005,-20.31415 2.0144,-1.09692 -1.27516,0.72746 1.19879,-0.76324 1.49663,-0.98885 0.1495,-0.1349 0.29899,-0.26981 0.44848,-0.40471 0,0 18.38656,-7.59535 18.38656,-7.59535 l 0,0 c -0.14378,0.15281 -0.28756,0.30562 -0.43135,0.45843 -4.84839,5.43638 -14.81455,9.20772 -19.07026,11.51172 -27.15608,14.70207 23.63771,-13.464 15.67154,-9.04585 -7.14574,4.00032 -13.82683,8.96433 -21.42861,12.03351 -6.55268,3.01505 -16.4588,6.76115 13.22282,-8.00413 -8.76025,5.03697 -17.45788,10.17238 -26.3816,14.9136 -5.79607,3.12562 -19.54943,11.06741 5.84551,-3.70598 2.5952,-1.50975 -10.33141,6.21242 -7.8907,5.1203 0,0 -18.34677,7.40534 -18.34677,7.40534 z"
       inkscape:connector-curvature="0" />
    <path
       id="path3157"
       d="m 646.27237,244.24314 c 4.88094,-6.36611 11.67129,-11.03406 18.11454,-15.70369 8.9301,-6.06638 17.57842,-12.77563 27.73389,-16.78604 4.57463,-1.35565 8.8646,-3.49746 13.26911,-5.3047 1.43277,-0.58071 2.87408,-1.14015 4.32915,-1.66247 0,0 -15.67507,12.24424 -15.67507,12.24424 l 0,0 c -1.3682,0.50228 -2.72954,1.02336 -4.07611,1.58143 -4.4293,1.87557 -8.88047,3.69021 -13.35662,5.45065 -6.24176,3.23809 -2.52276,1.32936 14.57049,-8.55925 0.52481,-0.30361 -1.04046,0.62394 -1.54272,0.96355 -2.44195,1.65115 -4.74297,3.51604 -7.31017,4.98286 -6.31851,4.47388 -12.78767,8.95473 -17.99198,14.74095 0,0 -18.06451,8.05247 -18.06451,8.05247 z"
       inkscape:connector-curvature="0" />
    <path
       id="path3159"
       d="m 343.73687,120.30293 c 44.8058,-25.774121 7.62236,-4.36385 3.66613,-2.159 -0.71731,0.39976 1.37874,-0.89296 2.05359,-1.36085 1.93657,-1.34266 3.76707,-2.82797 5.62608,-4.27376 2.60257,-2.13516 5.1164,-4.36959 7.75393,-6.46419 1.69164,-1.25587 3.2382,-2.68801 4.87685,-4.00768 5.9816,-4.886985 12.20367,-10.563676 20.09069,-11.917772 7.10099,-0.97756 1.36639,-0.417237 -15.98611,9.452826 -0.1088,0.06189 0.2355,-0.101724 0.3234,-0.190838 0.15076,-0.152846 0.21672,-0.436316 0.27827,-0.631332 0,0 17.89445,-8.774496 17.89445,-8.774496 l 0,0 c -0.42217,8.103392 -10.84661,9.217144 -18.20609,12.399492 -5.87323,3.59494 0.64695,-0.39995 16.13504,-9.394545 0.15578,-0.09047 -0.30147,0.197306 -0.45052,0.298468 -0.068,0.04614 -1.10181,0.761356 -1.13165,0.791353 -0.19152,0.192568 -0.31925,0.439467 -0.47887,0.6592 -1.80965,1.171412 -3.3704,2.627356 -4.99967,4.043652 -2.82299,1.900652 -5.32091,4.240052 -7.87375,6.479162 -2.54894,1.87478 -4.90551,4.17896 -7.62845,5.80174 -1.15984,0.69123 -43.43758,25.31125 -3.50318,2.03346 0,0 -18.44014,7.21511 -18.44014,7.21511 z"
       inkscape:connector-curvature="0" />
    <path
       id="path3161"
       d="m 703.78355,116.23855 c 8.37527,-6.71759 17.18115,-12.87718 25.90268,-19.131999 3.24478,-2.312182 6.55275,-4.532572 9.87109,-6.736935 0,0 18.14326,-7.075504 18.14326,-7.075504 l 0,0 c -3.49184,2.22699 -6.96941,4.476883 -10.36944,6.843094 -8.52177,6.059035 -17.14439,12.020974 -25.20081,18.696014 0,0 -18.34678,7.40533 -18.34678,7.40533 z"
       inkscape:connector-curvature="0" />
    <path
       id="path3163"
       d="m 711.73687,181.63626 c 10.46785,-7.13132 21.9042,-12.51955 33.16004,-18.20292 7.34513,-2.89457 24.29518,-12.97543 -5.45556,4.08811 0.60351,-0.37197 1.19811,-0.7588 1.81054,-1.1159 6.21016,-3.62117 12.41885,-7.24516 18.65662,-10.81856 1.32325,-0.75805 2.69115,-1.43543 4.04258,-2.14202 0.64287,-0.33613 2.57857,-1.3281 1.95161,-0.96315 -4.97587,2.89646 -10.00149,5.70662 -15.00223,8.55993 6.21352,-3.59246 12.41696,-7.20242 18.64057,-10.77739 0.55217,-0.31718 1.13075,-0.58652 1.68585,-0.89854 0.5112,-0.28734 2.02066,-1.19118 1.51218,-0.89905 -5.20423,2.98987 -10.39228,6.00787 -15.5996,8.99238 -0.7255,0.41581 1.41615,-0.89033 2.10807,-1.3599 0.91111,-0.65512 0.49015,-0.34553 1.26543,-0.92527 0,0 18.45958,-7.38057 18.45958,-7.38057 l 0,0 c -0.80472,0.65132 -0.36892,0.30492 -1.31041,1.03542 -6.40081,4.76816 -12.45913,7.54313 -20.23291,12.03166 -1.04047,0.60076 -4.18883,2.35534 -3.151,1.75004 4.96956,-2.89846 9.95258,-5.77377 14.92888,-8.66065 -6.20786,3.6006 -12.40148,7.22586 -18.62359,10.80178 -1.28209,0.73684 -2.61938,1.37338 -3.91898,2.07888 -0.67191,0.36476 -2.67069,1.48926 -2.01129,1.10236 16.34597,-9.59094 19.52565,-11.82588 13.12206,-7.45116 -9.35711,5.37594 -18.21754,10.89418 -28.06333,15.09664 -3.09844,1.52924 -6.19604,3.05094 -9.25986,4.64905 -1.0162,0.53006 -4.02579,2.19043 -3.04357,1.59979 23.99634,-14.42973 18.02409,-10.70441 12.76846,-7.40606 0,0 -18.44014,7.2151 -18.44014,7.2151 z"
       inkscape:connector-curvature="0" />
    <path
       id="path3165"
       d="m 708.07382,238.77191 c 11.70762,-7.41671 23.76971,-14.28777 36.0799,-20.6539 2.46476,-1.11825 4.89323,-2.3137 7.32108,-3.50916 0.50469,-0.24851 1.9994,-1.03047 1.51257,-0.74858 -18.15533,10.51241 -20.86299,12.27825 -14.98269,8.49117 5.93736,-3.42513 11.87595,-6.84811 17.81206,-10.27539 0.8622,-0.4978 1.62839,-0.98102 2.56584,-1.32425 0.25758,-0.0943 1.01241,-0.41397 0.7751,-0.2764 -5.45989,3.16526 -10.96947,6.24402 -16.4542,9.36602 0.53743,-0.34079 1.06378,-0.70456 1.61864,-1.01748 5.87481,-3.31306 11.52412,-7.06537 17.63281,-9.92434 5.77107,-2.70096 -21.67119,13.32896 -16.61693,9.4489 5.36981,-4.12231 11.71472,-6.78811 17.57209,-10.18216 8.2123,-4.29096 -21.0767,15.13531 -14.62388,8.10916 0,0 18.51801,-7.35049 18.51801,-7.35049 l 0,0 c -0.26811,0.12255 -0.61212,0.12343 -0.81916,0.33328 -0.12874,0.1305 -0.0661,0.40675 -0.22198,0.50314 -6.17222,3.81552 -12.14553,7.37238 -18.31659,10.91047 55.01883,-31.92137 -39.99322,22.82016 15.45851,-8.989 1.54121,-0.8841 -3.12249,1.75279 -1.67893,0.94982 -5.88814,3.38052 -11.76733,6.77668 -17.66442,10.14154 -0.74857,0.42713 -1.52742,0.82767 -2.28491,1.24352 -0.30253,0.16609 -1.20942,0.66532 -0.91136,0.49134 5.36142,-3.12928 10.7346,-6.23837 16.1019,-9.35755 -8.79036,5.7731 -17.91976,10.71305 -27.4216,15.09228 -3.8332,2.01032 -2.75264,1.42386 -6.75767,3.61122 -1.2588,0.68749 -5.00478,2.80366 -3.772,2.07053 24.38607,-14.50232 13.31951,-7.87224 7.96201,-4.29241 0,0 -18.4042,7.13872 -18.4042,7.13872 z"
       inkscape:connector-curvature="0" />
    <rect
       style="fill:#00ff00;fill-opacity:0"
       id="rect3340"
       width="22.666666"
       height="33.333332"
       x="85.333336"
       y="28" />
    <rect
       style="fill:#00ff00;fill-opacity:0"
       id="rect4114"
       width="124"
       height="74.666664"
       x="-153.33333"
       y="300" />
    <rect
       style="fill:#00ff00;fill-opacity:0"
       id="rect4116"
       width="36"
       height="18.666666"
       x="17.333334"
       y="245.33333" />
    <path
       sodipodi:type="arc"
       style="fill:none"
       id="path3190"
       sodipodi:cx="96"
       sodipodi:cy="45.333332"
       sodipodi:rx="25.333334"
       sodipodi:ry="25.333334"
       d="m 121.33333,45.333332 a 25.333334,25.333334 0 1 1 -50.666664,0 25.333334,25.333334 0 1 1 50.666664,0 z" />
    <path
       sodipodi:type="arc"
       style="fill:#000000;fill-opacity:0.15068497"
       id="path5402"
       sodipodi:cx="98.666664"
       sodipodi:cy="49.333332"
       sodipodi:rx="24"
       sodipodi:ry="25.333334"
       d="m 122.66666,49.333332 a 24,25.333334 0 1 1 -47.999996,0 24,25.333334 0 1 1 47.999996,0 z" />
    <path
       sodipodi:type="arc"
       style="fill:#000000;fill-opacity:0.15068497"
       id="path5406"
       sodipodi:cx="98"
       sodipodi:cy="104.66666"
       sodipodi:rx="24.666666"
       sodipodi:ry="26"
       d="m 122.66667,104.66666 a 24.666666,26 0 1 1 -49.333336,0 24.666666,26 0 1 1 49.333336,0 z" />
    <path
       sodipodi:type="arc"
       style="fill:#000000;fill-opacity:0.15068497"
       id="path5408"
       sodipodi:cx="135.33333"
       sodipodi:cy="106.66666"
       sodipodi:rx="26"
       sodipodi:ry="26.666666"
       d="m 161.33333,106.66666 a 26,26.666666 0 1 1 -52,0 26,26.666666 0 1 1 52,0 z" />
    <path
       sodipodi:type="arc"
       style="fill:#000000;fill-opacity:0.15068497"
       id="path5412"
       sodipodi:cx="100"
       sodipodi:cy="170.66667"
       sodipodi:rx="25.333334"
       sodipodi:ry="25.333334"
       d="m 125.33333,170.66667 a 25.333334,25.333334 0 1 1 -50.666664,0 25.333334,25.333334 0 1 1 50.666664,0 z" />
    <path
       sodipodi:type="arc"
       style="fill:#000000;fill-opacity:0.15068497"
       id="path5414"
       sodipodi:cx="140"
       sodipodi:cy="168.66667"
       sodipodi:rx="26.666666"
       sodipodi:ry="27.333334"
       d="m 166.66667,168.66667 a 26.666666,27.333334 0 1 1 -53.33334,0 26.666666,27.333334 0 1 1 53.33334,0 z" />
    <path
       sodipodi:type="arc"
       style="fill:#000000;fill-opacity:0.15068497"
       id="path5418"
       sodipodi:cx="212"
       sodipodi:cy="168"
       sodipodi:rx="24"
       sodipodi:ry="24"
       d="m 236,168 a 24,24 0 1 1 -48,0 24,24 0 1 1 48,0 z" />
    <path
       sodipodi:type="arc"
       style="fill:#000000;fill-opacity:0.15068497"
       id="path5420"
       sodipodi:cx="101.33334"
       sodipodi:cy="228.66667"
       sodipodi:rx="24"
       sodipodi:ry="23.333334"
       d="m 125.33334,228.66667 a 24,23.333334 0 1 1 -47.999996,0 24,23.333334 0 1 1 47.999996,0 z" />
    <path
       sodipodi:type="arc"
       style="fill:#000000;fill-opacity:0.15068497"
       id="path5422"
       sodipodi:cx="139.33333"
       sodipodi:cy="228.66667"
       sodipodi:rx="27.333334"
       sodipodi:ry="24.666666"
       d="m 166.66666,228.66667 a 27.333334,24.666666 0 1 1 -54.66667,0 27.333334,24.666666 0 1 1 54.66667,0 z" />
    <path
       sodipodi:type="arc"
       style="fill:#000000;fill-opacity:0.15068497"
       id="path5430"
       sodipodi:cx="216"
       sodipodi:cy="228.66667"
       sodipodi:rx="24"
       sodipodi:ry="24.666666"
       d="m 240,228.66667 a 24,24.666666 0 1 1 -48,0 24,24.666666 0 1 1 48,0 z" />
    <path
       sodipodi:type="arc"
       style="fill:#000000;fill-opacity:0.15068497"
       id="path5434"
       sodipodi:cx="293.33334"
       sodipodi:cy="227.33333"
       sodipodi:rx="21.333334"
       sodipodi:ry="24.666666"
       d="m 314.66668,227.33333 a 21.333334,24.666666 0 1 1 -42.66667,0 21.333334,24.666666 0 1 1 42.66667,0 z" />
    <path
       sodipodi:type="arc"
       style="fill:#000000;fill-opacity:0"
       id="path4847"
       sodipodi:cx="484"
       sodipodi:cy="227.33333"
       sodipodi:rx="25.333334"
       sodipodi:ry="23.333334"
       d="m 509.33333,227.33333 a 25.333334,23.333334 0 1 1 -50.66666,0 25.333334,23.333334 0 1 1 50.66666,0 z" />
    <path
       style="fill:#000000;fill-opacity:0.83561641"
       id="path4859"
       d="m 338.45022,181.57189 c 3.80921,-3.22278 7.41893,-6.68148 11.0719,-10.08087 2.90639,-2.78762 5.8048,-5.56894 8.90972,-8.13536 6.41335,-5.92081 15.2581,-8.26011 22.15755,-13.47889 1.14343,-0.88605 2.79234,-0.55912 3.87538,-1.43216 6.38915,-4.38969 -21.82413,11.62865 -16.12514,9.21179 9.97542,-4.23043 11.62133,-8.75233 18.8937,-10.2716 0.15653,0.0136 0.31307,0.0272 0.46961,0.0409 0,0 -15.94242,11.96047 -15.94242,11.96047 l 0,0 c -0.10972,0.0548 -0.21944,0.10953 -0.32916,0.16429 -0.37606,0.14077 -1.45047,0.68574 -1.10259,0.4852 34.40322,-19.83209 9.44752,-5.02165 -1.46169,0.7544 -1.35568,0.24914 -2.55894,0.84507 -3.72705,1.57125 -6.57037,2.64736 -0.68039,0.31505 15.50517,-9.08815 0.26664,-0.15491 -0.55192,0.27564 -0.82227,0.424 -1.14341,0.62744 -2.09151,1.46326 -3.0845,2.305 -3.20105,2.51311 -6.24247,5.17599 -9.11301,8.06644 -3.61392,3.36267 -7.25407,6.69954 -10.82843,10.09798 0,0 -18.34677,7.40534 -18.34677,7.40534 z"
       inkscape:connector-curvature="0" />
    <path
       style="fill:#000000;fill-opacity:0.83561641"
       id="path4861"
       d="m 342.45022,245.57189 c 3.8914,-3.16728 7.42522,-6.7248 11.24981,-9.97123 4.08925,-3.48165 8.37489,-6.7254 12.7157,-9.88482 1.30406,-0.87587 2.51543,-1.7244 3.87011,-2.51201 6.08269,-3.53645 12.20801,-6.99945 18.27988,-10.55445 5.1844,-3.03539 -20.85815,11.93266 -15.61741,8.99561 21.09745,-11.82352 11.64384,-7.3613 19.10034,-10.85381 -0.44095,0.50224 1.98816,-1.11106 1.49396,-0.82826 -5.46399,3.12672 -21.93486,12.35995 -16.35806,9.43917 6.41467,-3.3596 11.86578,-9.47211 19.0392,-10.46054 0.82466,-0.11921 0.42991,-0.0663 1.18399,-0.16068 0,0 -15.88687,12.00257 -15.88687,12.00257 l 0,0 c -0.66305,0.17378 -0.31837,0.072 -1.03207,0.31207 -0.38117,0.1939 -1.50777,0.80731 -1.13787,0.59269 5.45049,-3.16245 21.76415,-12.71347 16.36279,-9.46782 -6.94947,4.17589 -12.43468,7.79091 -19.13812,10.94158 -0.31625,0.16685 -1.2577,0.6806 -0.94876,0.50057 5.24093,-3.05406 20.99895,-12.15555 15.74549,-9.12311 -58.80392,33.94321 14.92823,-8.67656 -6.79204,4.00025 -4.3821,3.07909 -8.64704,6.33064 -12.77217,9.74544 -3.81083,3.15732 -7.35791,6.5515 -11.01113,9.88144 0,0 -18.34677,7.40534 -18.34677,7.40534 z"
       inkscape:connector-curvature="0" />
    <text
       xml:space="preserve"
       style="font-size:40px;font-style:normal;font-weight:normal;text-align:start;line-height:125%;letter-spacing:0px;word-spacing:0px;text-anchor:start;fill:#000000;fill-opacity:1;stroke:none;font-family:Sans"
       x="30.666668"
       y="286.66666"
       id="text4863"
       sodipodi:linespacing="125%"><tspan
         sodipodi:role="line"
         id="tspan4865"
         x="30.666668"
         y="286.66666" /></text>
    <text
       xml:space="preserve"
       style="font-size:40px;font-style:normal;font-weight:normal;text-align:start;line-height:125%;letter-spacing:0px;word-spacing:0px;text-anchor:start;fill:#000000;fill-opacity:1;stroke:none;font-family:Sans"
       x="29.333332"
       y="289.33334"
       id="text4867"
       sodipodi:linespacing="125%"><tspan
         sodipodi:role="line"
         id="tspan4869" /></text>
    <text
       xml:space="preserve"
       style="font-size:40px;font-style:normal;font-weight:normal;text-align:start;line-height:125%;letter-spacing:0px;word-spacing:0px;text-anchor:start;fill:#000000;fill-opacity:1;stroke:none;font-family:Sans"
       x="21.333332"
       y="301.33334"
       id="text4871"
       sodipodi:linespacing="125%"><tspan
         sodipodi:role="line"
         id="tspan4873" /></text>
    <text
       xml:space="preserve"
       style="font-size:40px;font-style:normal;font-weight:normal;text-align:start;line-height:125%;letter-spacing:0px;word-spacing:0px;text-anchor:start;fill:#000000;fill-opacity:1;stroke:none;font-family:Sans"
       x="25.333332"
       y="296"
       id="text4897"
       sodipodi:linespacing="125%"><tspan
         sodipodi:role="line"
         id="tspan4899" /></text>
    <text
       xml:space="preserve"
       style="font-size:40px;font-style:normal;font-weight:normal;text-align:start;line-height:125%;letter-spacing:0px;word-spacing:0px;text-anchor:start;fill:#000000;fill-opacity:1;stroke:none;font-family:Sans"
       x="20"
       y="298.66666"
       id="text4901"
       sodipodi:linespacing="125%"><tspan
         sodipodi:role="line"
         id="tspan4903" /></text>
    <text
       xml:space="preserve"
       style="font-size:40px;font-style:normal;font-weight:normal;text-align:start;line-height:125%;letter-spacing:0px;word-spacing:0px;text-anchor:start;fill:#000000;fill-opacity:1;stroke:none;font-family:Sans"
       x="16"
       y="300"
       id="text4905"
       sodipodi:linespacing="125%"><tspan
         sodipodi:role="line"
         id="tspan4907" /></text>
    <text
       xml:space="preserve"
       style="font-size:40px;font-style:normal;font-weight:normal;text-align:start;line-height:125%;letter-spacing:0px;word-spacing:0px;text-anchor:start;fill:#000000;fill-opacity:1;stroke:none;font-family:Sans"
       x="10.666667"
       y="302.66666"
       id="text4909"
       sodipodi:linespacing="125%"><tspan
         sodipodi:role="line"
         id="tspan4911"
         x="10.666667"
         y="302.66666">11  2 3 4 5 6 7 8 9 10 11 12 13 14 15</tspan></text>
    <path
       style="fill:#000000;fill-opacity:0.83561641"
       id="path4913"
       d="m 152.82055,304.34864 c 2.27448,-4.43819 6.27566,-7.52593 10.39394,-10.15362 7.57646,-4.57521 3.87139,-2.35402 20.18616,-11.69164 0.43782,-0.25058 1.784,-0.94171 1.34747,-0.6889 -26.84438,15.54669 -19.99218,11.74509 -14.31651,8.08066 6.16589,-3.92417 2.94136,-1.88495 18.18885,-10.35135 0.16766,-0.0931 0.3896,-0.0297 0.5654,-0.10637 0.48475,-0.21128 0.99606,-0.67981 1.44444,-0.974 -5.52186,3.23876 -11.01128,6.53349 -16.5656,9.71628 -0.33534,0.19216 0.47088,-0.63868 0.80291,-0.83652 5.8059,-3.45944 11.99516,-6.3241 17.48057,-10.27209 4.95567,-3.56672 -20.67605,12.89755 -15.90188,9.09131 6.34619,-4.3872 12.45493,-9.86067 20.12294,-10.77834 8.94058,-0.32269 -21.99946,12.49299 -15.33133,9.20184 0,0 18.37368,-7.73373 18.37368,-7.73373 l 0,0 c -3.25334,6.56437 -11.9396,9.027 -18.93553,10.57276 -0.39832,0.1204 -0.81831,0.23711 -1.1815,0.44602 -0.16375,0.0942 -0.62791,0.41928 -0.46409,0.32523 17.7583,-10.19559 22.14588,-12.45152 15.93956,-9.24397 -6.62951,3.2948 -1.85726,0.90458 -18.1024,10.62076 -5.4634,3.26764 10.95869,-6.48175 16.45311,-9.69697 0.31326,-0.18331 -0.56913,0.45369 -0.87919,0.64237 -5.75498,3.50208 -11.52426,6.9806 -17.28639,10.4709 -10.3156,5.13105 20.69977,-12.91468 13.78466,-8.27111 -10.52517,6.34464 -38.24756,22.09312 -5.63494,3.32462 0.61554,-0.35424 -1.20999,0.74397 -1.81499,1.11596 -4.10678,2.24063 -8.02433,4.99986 -10.68684,8.92643 0,0 -17.9825,8.26347 -17.9825,8.26347 z"
       inkscape:connector-curvature="0" />
    <path
       style="fill:#000000;fill-opacity:0.83561641"
       id="path4915"
       d="m 225.0702,305.63626 c 7.82702,-5.23653 16.19837,-9.59866 24.42571,-14.16732 1.19641,-0.66437 4.76132,-2.70067 3.57666,-2.01557 -15.63385,9.04124 -16.82176,9.81568 -9.75734,5.47283 3.66109,-2.32453 7.18076,-4.85765 10.72016,-7.35956 6.47387,-5.25294 11.33127,-7.00854 20.52452,-12.17271 1.0612,-0.4201 2.10527,-1.07259 3.12728,-1.70828 -5.4771,3.16123 -10.95419,6.32247 -16.43129,9.4837 0,0 18.55648,-7.14746 18.55648,-7.14746 l 0,0 c -5.85775,3.38683 -11.71551,6.77366 -17.57326,10.16049 -1.10184,0.57523 -2.1695,1.15032 -3.3825,1.41142 32.65662,-18.91381 18.43479,-12.04837 13.60116,-7.25356 -3.75473,2.45254 -7.32002,5.18173 -11.10645,7.595 -9.61126,6.04098 -3.14062,2.02876 -23.27831,13.63811 -1.2088,0.69687 -2.43095,1.37035 -3.64761,2.05343 -1.08762,0.61062 -4.33951,2.46145 -3.26522,1.82766 15.81304,-9.32918 18.41104,-11.15297 12.35015,-7.03328 0,0 -18.44014,7.2151 -18.44014,7.2151 z"
       inkscape:connector-curvature="0" />
    <path
       style="fill:#000000;fill-opacity:0.83561641"
       id="path4917"
       d="m 303.73687,304.30293 c 9.07874,-5.51892 17.98969,-11.29911 26.90165,-17.08077 1.24983,-0.80272 2.49965,-1.60544 3.74948,-2.40817 0,0 17.91028,-6.96202 17.91028,-6.96202 l 0,0 c -1.30608,0.82052 -2.61217,1.64103 -3.91825,2.46155 -8.74118,5.58057 -17.37468,11.32998 -26.20302,16.7743 0,0 -18.44014,7.21511 -18.44014,7.21511 z"
       inkscape:connector-curvature="0" />
    <path
       style="fill:#000000;fill-opacity:0.83561641"
       id="path4923"
       d="m 356.80439,293.14212 c 4.78882,-2.63163 9.57546,-5.26282 14.60598,-7.40582 0.74053,-0.33771 1.49009,-0.65628 2.22159,-1.01313 0.83241,-0.40608 3.09968,-1.64162 3.91865,-2.08405 0.67199,-0.36303 2.67737,-1.47103 2.01592,-1.08914 -18.2415,10.53192 -19.00823,11.01787 -12.53361,7.10538 7.30273,-4.55272 14.8545,-8.68079 22.36752,-12.87908 0.47633,-0.26618 0.99686,-0.44429 1.49934,-0.65704 0.39288,-0.16635 1.55531,-0.69463 1.18648,-0.48015 -5.35902,3.11639 -10.77833,6.12796 -16.16749,9.19193 0.5405,-0.24103 1.01035,-0.60142 1.51744,-0.8991 0,0 18.33927,-7.86805 18.33927,-7.86805 l 0,0 c -0.29242,0.67164 -0.78084,1.19312 -1.34518,1.65733 -5.95723,3.39335 -11.89598,6.81936 -17.8717,10.18004 -0.80367,0.45198 -3.29926,1.64119 -2.50576,1.17158 5.01527,-2.96818 10.07839,-5.8548 15.11109,-8.79333 1.2991,-0.75854 -5.4788,3.09331 -3.86515,2.3298 -9.57141,5.69209 -18.99905,11.75127 -29.20483,16.25807 -5.02822,2.2968 -9.87272,4.9637 -14.66548,7.7146 0,0 15.37592,-12.43984 15.37592,-12.43984 z"
       inkscape:connector-curvature="0" />
    <path
       style="fill:#000000;fill-opacity:0.83561641"
       id="path4925"
       d="m 386.45022,304.23855 c 14.15309,-10.02235 29.45579,-18.37892 44.45624,-27.02217 1.4209,-0.78183 2.83835,-1.56998 4.26271,-2.34548 9.87462,-5.3763 -3.08896,1.93879 -10.94481,6.38533 -0.55443,0.31382 1.09013,-0.66031 1.62144,-1.01187 1.03187,-0.6828 1.0125,-0.70796 1.83329,-1.43009 1.1329,-0.97622 0.63167,-0.68608 1.08832,-1.84909 3.46452,-6.35288 11.43266,-10.19847 18.58418,-11.01285 0,0 -15.80621,12.16531 -15.80621,12.16531 l 0,0 c -7.15094,3.69772 21.00572,-14.64806 15.48003,-9.17065 -0.0743,0.0653 -0.12756,0.16942 -0.22284,0.19604 -0.0936,0.0261 -0.23017,-0.13286 -0.28663,-0.0537 -0.19387,0.27172 0.13753,1.75478 -0.55207,2.07181 -1.03059,1.32042 -2.04807,2.22526 -3.51996,3.08374 -8.72796,5.09061 -17.40243,10.17152 -26.30672,14.91541 3.7087,-2.16249 7.39911,-4.35668 11.12611,-6.48749 1.89347,-1.08254 -3.75779,2.21549 -5.62516,3.34247 -4.27321,2.57895 -6.52482,3.98585 -10.64587,6.65412 -3.54811,2.2973 -3.27979,2.13916 -6.19528,4.16387 0,0 -18.34677,7.40533 -18.34677,7.40533 z"
       inkscape:connector-curvature="0" />
    <path
       style="fill:#000000;fill-opacity:0.83561641"
       id="path4927"
       d="m 517.02603,305.57811 c 4.66949,-4.27626 10.18617,-7.58033 15.63934,-10.75437 20.62264,-12.00353 14.92009,-8.91263 26.79626,-15.18245 1.45574,-0.73991 2.90005,-1.50276 4.36723,-2.21973 6.11767,-2.98954 1.21925,-0.40014 6.40466,-3.10428 6.29678,-3.2837 16.72905,-9.50653 -12.44849,7.22878 0.84793,-0.5071 1.45576,-1.04183 1.53871,-2.04457 -0.005,-0.12292 -0.009,-0.24584 -0.0139,-0.36876 0,0 17.69079,-9.17896 17.69079,-9.17896 l 0,0 c 0.0152,0.14544 0.0304,0.29088 0.0457,0.43632 0.16287,1.35815 0.14215,2.80699 -0.85802,3.85423 -5.93979,3.5094 -11.86633,7.04131 -17.81937,10.52819 -3.03012,1.77484 -6.35707,3.0852 -9.5009,4.63273 -1.41498,0.69652 -2.81158,1.42977 -4.21737,2.14465 -4.76885,2.55543 -15.18738,8.21581 5.6864,-3.55232 1.75409,-0.98892 -3.45677,2.06659 -5.17191,3.12163 -4.39091,2.70101 -3.91838,2.39837 -7.76791,5.15222 -0.7243,0.51814 -1.44114,1.04662 -2.16171,1.56993 0,0 -18.2095,7.73676 -18.2095,7.73676 z"
       inkscape:connector-curvature="0" />
    <path
       style="fill:#000000;fill-opacity:0.83561641"
       id="path4931"
       d="m 659.47105,297.14212 c 0.56129,-0.2716 2.22218,-1.12948 1.68386,-0.81481 -34.14185,19.95766 -2.65606,0.23034 9.12949,-4.50181 4.77738,-1.89744 9.34809,-4.24549 13.99053,-6.4397 1.55286,-0.90901 3.45318,-1.09824 5.05525,-1.86618 0.31805,-0.15245 1.20474,-0.73375 0.89823,-0.55926 -5.1622,2.93867 -10.31063,5.90145 -15.46594,8.85217 60.08361,-34.37101 -13.84279,7.89557 7.35314,-4.29937 5.95,-3.4233 11.91166,-6.82629 17.86749,-10.23943 12.78745,-9.09207 -56.16801,34.15799 2.83407,-1.70271 5.24895,-3.19025 -10.62792,6.16178 -15.96812,9.19679 -0.50826,0.28886 0.94207,-0.69312 1.39763,-1.05949 0.88499,-0.52829 1.38999,-1.62752 2.31474,-2.06317 0.18269,-0.59823 0.58285,-1.05552 0.99129,-1.50912 0,0 18.48098,-7.50348 18.48098,-7.50348 l 0,0 c -0.43049,0.2869 -0.8316,0.61911 -1.29321,0.85609 -0.1918,1.16552 -1.3591,1.8582 -2.09605,2.7396 -5.67722,5.39344 -10.15543,5.68568 -19.2157,11.79686 -5.08105,3.42719 21.18327,-12.33961 15.90344,-9.22737 -16.16571,9.52902 -11.86826,7.29263 -18.81592,10.87683 53.36771,-30.93742 -43.46943,25.38511 8.64274,-4.92422 -6.13998,3.51949 -12.24872,7.09405 -18.41995,10.55846 -1.7916,1.00577 -4.0937,1.11367 -5.81671,2.2987 -4.66677,2.19035 -9.29781,4.45814 -14.07332,6.40864 -1.81493,0.81446 -1.71899,0.75142 -3.53537,1.64967 -0.58643,0.29 -2.31451,1.21874 -1.75153,0.8855 31.91434,-18.8913 5.82232,-2.94349 -5.46698,3.03065 0,0 15.37592,-12.43984 15.37592,-12.43984 z"
       inkscape:connector-curvature="0" />
    <path
       style="fill:#000000;fill-opacity:0.83561641"
       id="path4933"
       d="m 710.77836,306.68754 c 10.37431,-7.07936 20.49557,-14.51788 30.75283,-21.76337 3.45305,-2.44999 6.83098,-5.00285 10.14764,-7.63372 0,0 18.26975,-7.31315 18.26975,-7.31315 l 0,0 c -3.52619,2.74596 -7.11543,5.40973 -10.76147,7.99483 -10.13265,6.99372 -20.02831,14.31886 -30.0803,21.42646 0,0 -18.32845,7.28895 -18.32845,7.28895 z"
       inkscape:connector-curvature="0" />
    <path
       sodipodi:type="arc"
       style="fill:#000000;fill-opacity:0.1780822"
       id="path4937"
       sodipodi:cx="100.66666"
       sodipodi:cy="288.66666"
       sodipodi:rx="23.333334"
       sodipodi:ry="20.666666"
       d="m 123.99999,288.66666 a 23.333334,20.666666 0 1 1 -46.666667,0 23.333334,20.666666 0 1 1 46.666667,0 z" />
    <path
       sodipodi:type="arc"
       style="fill:#000000;fill-opacity:0.17808222"
       id="path4942"
       sodipodi:cx="139.33333"
       sodipodi:cy="290.66666"
       sodipodi:rx="26"
       sodipodi:ry="22.666666"
       d="m 165.33333,290.66666 a 26,22.666666 0 1 1 -52,0 26,22.666666 0 1 1 52,0 z" />
    <path
       sodipodi:type="arc"
       style="fill:#000000;fill-opacity:0.17808222"
       id="path4944"
       sodipodi:cx="216"
       sodipodi:cy="290"
       sodipodi:rx="25.333334"
       sodipodi:ry="24.666666"
       d="m 241.33333,290 a 25.333334,24.666666 0 1 1 -50.66666,0 25.333334,24.666666 0 1 1 50.66666,0 z" />
    <path
       sodipodi:type="arc"
       style="fill:#000000;fill-opacity:0.17808222"
       id="path4950"
       sodipodi:cx="291.33334"
       sodipodi:cy="287.33334"
       sodipodi:rx="24.666666"
       sodipodi:ry="24.666666"
       d="m 316.00001,287.33334 a 24.666666,24.666666 0 1 1 -49.33333,0 24.666666,24.666666 0 1 1 49.33333,0 z" />
    <path
       sodipodi:type="arc"
       style="fill:#000000;fill-opacity:0.17808222"
       id="path4952"
       sodipodi:cx="483.33334"
       sodipodi:cy="288.66666"
       sodipodi:rx="26"
       sodipodi:ry="24.666666"
       d="m 509.33334,288.66666 a 26,24.666666 0 1 1 -52,0 26,24.666666 0 1 1 52,0 z" />
    <path
       sodipodi:type="arc"
       style="fill:#000000;fill-opacity:0.17808222"
       id="path4954"
       sodipodi:cx="610.66669"
       sodipodi:cy="288"
       sodipodi:rx="28"
       sodipodi:ry="28"
       d="m 638.66669,288 a 28,28 0 1 1 -56,0 28,28 0 1 1 56,0 z" />
  </g>
  <g
     inkscape:groupmode="layer"
     id="layer2"
     inkscape:label="Layer2">
    <rect
       style="fill:#ff2a2a;fill-opacity:0"
       id="rect4141"
       width="30.666666"
       height="44"
       x="78.666664"
       y="24" />
    <path
       sodipodi:type="arc"
       style="fill:none"
       id="path3188"
       sodipodi:cx="88.666664"
       sodipodi:cy="43.333332"
       sodipodi:rx="15.333333"
       sodipodi:ry="14"
       d="m 104,43.333332 a 15.333333,14 0 1 1 -30.666669,0 15.333333,14 0 1 1 30.666669,0 z" />
  </g>
</svg>
